<svg xmlns="http://www.w3.org/2000/svg" width="33.443" height="30.656" viewBox="0 0 33.443 30.656"><defs><style>.a{fill:#fff;}</style></defs><g transform="translate(0 -21.334)"><g transform="translate(0 21.334)"><path class="a" d="M33.3,25.793a.724.724,0,0,0-.557-.279H6.271l-.7-3.623c0-.279-.418-.557-.7-.557H.7a.7.7,0,0,0,0,1.393H4.32l3.344,17a4.91,4.91,0,0,0,4.738,3.9H28.427a.7.7,0,0,0,0-1.394H12.541A3.213,3.213,0,0,1,9.754,40.7L30.1,37.916a.6.6,0,0,0,.557-.557l2.787-11.148A.688.688,0,0,0,33.3,25.793ZM29.4,36.662,9.058,39.31,6.549,26.768H31.771Z" transform="translate(0 -21.334)"/></g><g transform="translate(8.361 45.023)"><path class="a" d="M131.484,384a3.484,3.484,0,1,0,3.484,3.484A3.45,3.45,0,0,0,131.484,384Zm0,5.574a2.09,2.09,0,1,1,2.09-2.09A2.143,2.143,0,0,1,131.484,389.574Z" transform="translate(-128 -384)"/></g><g transform="translate(22.296 45.023)"><path class="a" d="M344.818,384a3.484,3.484,0,1,0,3.484,3.484A3.45,3.45,0,0,0,344.818,384Zm0,5.574a2.09,2.09,0,1,1,2.09-2.09A2.143,2.143,0,0,1,344.818,389.574Z" transform="translate(-341.334 -384)"/></g></g></svg>