<svg xmlns="http://www.w3.org/2000/svg" width="194" height="28.848" viewBox="0 0 194 28.848">
  <g id="_2vert" data-name="2vert" transform="translate(-25.692 -306.741)">
    <g id="Group_2" data-name="Group 2" transform="translate(25.692 306.741)">
      <path id="Path_114898" data-name="Path 114898" d="M32.79,137.724q.581,0,1.217.011t1.273.045q.636.034,1.228.079c.394.029.748.066,1.06.111a2.639,2.639,0,0,1-.111-.692,3.1,3.1,0,0,1,.111-.714q-1.473.046-2.88.078t-2.88.033q-1.474,0-2.881-.033t-2.88-.078a3.07,3.07,0,0,1,.111.692,2.7,2.7,0,0,1-.111.714q.468-.067,1.06-.111t1.229-.079q.636-.033,1.273-.045t1.217-.011q.066,2.3.067,4.621v3.841q0,1.473-.055,2.9t-.123,2.814q.513-.045,1.094-.045t1.094.045q-.067-1.384-.123-2.814t-.056-2.9v-3.841q0-2.322.067-4.621" transform="translate(-26.048 -136.272)" fill="#9f7264"/>
      <path id="Path_114899" data-name="Path 114899" d="M64.61,139.454q.055-1.418.123-2.892c-.193.03-.38.055-.558.078a4.318,4.318,0,0,1-1.072,0c-.179-.023-.365-.048-.558-.078q.066,1.474.123,2.892t.056,2.891v.781l-2.334.045q-1.128.024-2.333.023t-2.333-.023l-2.333-.045v-.781q0-1.474.056-2.891t.123-2.892c-.194.03-.38.055-.558.078a4.323,4.323,0,0,1-1.072,0c-.178-.023-.365-.048-.558-.078q.067,1.474.123,2.892t.056,2.891v3.841q0,1.472-.056,2.9t-.123,2.814q.514-.045,1.094-.045t1.094.045q-.067-1.384-.123-2.814t-.056-2.9v-2.01q1.206-.022,2.333-.033t2.333-.011q1.206,0,2.333.011t2.334.033v2.01q0,1.472-.056,2.9t-.123,2.814q.513-.045,1.094-.045t1.094.045q-.067-1.384-.123-2.814t-.055-2.9v-3.841q0-1.474.055-2.891" transform="translate(-36.288 -136.272)" fill="#9f7264"/>
      <path id="Path_114900" data-name="Path 114900" d="M90.493,150.628a9.77,9.77,0,0,1-1.262.168q-.725.056-1.54.089t-1.663.033H84.465q-.022-.423-.033-1.25t-.011-2.1v-2.21c0-.238,0-.436.011-.592s.011-.3.011-.435q.4,0,1.083.011l1.451.023q.77.012,1.541.055t1.351.112a3.4,3.4,0,0,1-.067-.67,3.536,3.536,0,0,1,.067-.693q-.492.046-1.038.079t-1.194.067q-.649.034-1.429.055t-1.764.023q0-.425-.011-1.25t-.011-1.7q0-.826.033-1.474t.056-1.361q1.094,0,1.876.033t1.44.078q.658.045,1.251.089c.394.03.829.06,1.306.09a3.367,3.367,0,0,1,0-1.34q-1.005.045-1.988.077t-1.987.033q-1,0-2-.033t-2-.077q.067,1.429.123,2.857t.055,2.9v3.84q0,1.474-.055,2.891t-.123,2.847q1.027-.045,2.032-.045H88.5q.993,0,2,.045a2.071,2.071,0,0,1-.067-.581c0-.1,0-.219.011-.346a1.6,1.6,0,0,1,.056-.346" transform="translate(-48.831 -136.272)" fill="#9f7264"/>
      <path id="Path_114901" data-name="Path 114901" d="M121.343,136.641q-1.027.033-2.032.033t-2-.033q-.994-.034-2-.078.067,1.474.123,2.892t.056,2.89v3.841q0,1.473-.056,2.9t-.123,2.813q.514-.045,1.094-.045t1.094.045q-.067-1.384-.123-2.813t-.056-2.9v-1.9h1.5q.781,0,1.541.023t1.462.056q.7.033,1.261.1a2.572,2.572,0,0,1,0-1.34q-1.406.134-2.847.179t-2.913.045q0-.715-.011-1.374t-.011-1.44q0-.714.011-1.428c.008-.477.018-.975.033-1.5q.536,0,1.351.021t1.7.056q.882.034,1.73.089t1.451.123a3.367,3.367,0,0,1,0-1.34q-1.206.046-2.233.078" transform="translate(-62.131 -136.272)" fill="#9f7264"/>
      <path id="Path_114902" data-name="Path 114902" d="M136.048,149.088q-.056,1.431-.123,2.814.514-.045,1.094-.045t1.094.045q-.067-1.384-.123-2.814t-.056-2.9v-3.841q0-1.474.056-2.891t.123-2.891c-.194.03-.38.055-.558.077a4.326,4.326,0,0,1-1.072,0c-.178-.023-.365-.048-.558-.077q.067,1.473.123,2.891t.056,2.891v3.841q0,1.472-.056,2.9" transform="translate(-70.462 -136.272)" fill="#9f7264"/>
      <path id="Path_114903" data-name="Path 114903" d="M161.279,151.994v-.737q0-.535-.011-1.261t-.022-1.563c-.008-.557-.015-1.112-.023-1.663s-.011-1.079-.011-1.586v-1.339q0-.647.044-1.719t.1-2.188q.055-1.115.111-2.1t.1-1.473a3.107,3.107,0,0,1-.714.111,3.2,3.2,0,0,1-.759-.111q.112,1.964.145,4.186t.034,4.566v3.037q-1.027-1.027-2.4-2.49t-2.9-3.1q-1.529-1.641-3.081-3.327t-2.914-3.159h-.357q.045.76.056,2.3t.011,3.683q0,.736-.023,1.675t-.056,1.92q-.033.983-.089,1.965t-.1,1.82q-.045.837-.1,1.44t-.1.826a7.077,7.077,0,0,1,.826-.045,6.325,6.325,0,0,1,.782.045q-.022-.179-.045-.681c-.015-.335-.03-.726-.045-1.172s-.03-.931-.045-1.451-.026-1.035-.033-1.541-.015-.99-.022-1.451-.011-.848-.011-1.161q0-1.808.022-2.858t.045-1.674q2.9,3.08,5.8,6.195t5.47,6.085Z" transform="translate(-75.431 -136.075)" fill="#9f7264"/>
      <path id="Path_114904" data-name="Path 114904" d="M187.33,150.628a9.774,9.774,0,0,1-1.261.168q-.726.056-1.541.089t-1.663.033H181.3q-.023-.423-.033-1.25t-.011-2.1v-2.21q0-.357.011-.592t.011-.435q.4,0,1.083.011l1.451.023q.77.012,1.541.055t1.351.112a3.4,3.4,0,0,1-.067-.67,3.535,3.535,0,0,1,.067-.693q-.492.046-1.038.079t-1.194.067q-.649.034-1.429.055t-1.764.023q0-.425-.011-1.25t-.011-1.7q0-.826.033-1.474t.056-1.361q1.094,0,1.876.033t1.44.078q.658.045,1.25.089c.394.03.83.06,1.307.09a3.366,3.366,0,0,1,0-1.34q-1.005.045-1.987.077t-1.987.033q-1.005,0-2-.033t-2-.077q.066,1.429.122,2.857t.056,2.9v3.84q0,1.474-.056,2.891t-.122,2.847q1.026-.045,2.031-.045h4.053q.994,0,2,.045a2.093,2.093,0,0,1-.067-.581c0-.1,0-.219.011-.346a1.636,1.636,0,0,1,.056-.346" transform="translate(-87.974 -136.272)" fill="#9f7264"/>
      <path id="Path_114905" data-name="Path 114905" d="M222.509,151.179a2.884,2.884,0,0,0,.636-.39l.2-1.318-.089-.089q-.313.248-.77.569a7.255,7.255,0,0,1-1.027.6,7.851,7.851,0,0,1-1.25.48,5.251,5.251,0,0,1-1.485.2,6.9,6.9,0,0,1-2.445-.424,5.213,5.213,0,0,1-1.965-1.307,6.1,6.1,0,0,1-1.306-2.233,11.18,11.18,0,0,1,0-6.408,6.109,6.109,0,0,1,1.306-2.233,5.218,5.218,0,0,1,1.965-1.306,6.885,6.885,0,0,1,2.445-.425,4.867,4.867,0,0,1,1.474.213,6,6,0,0,1,1.206.524,6.9,6.9,0,0,1,.938.648,4.892,4.892,0,0,1,.625.6l.134-.045c.045-.238.1-.536.179-.893a2.951,2.951,0,0,1,.29-.849,12.683,12.683,0,0,0-2.154-.726,11.2,11.2,0,0,0-2.691-.3,10.283,10.283,0,0,0-3.394.536,7.415,7.415,0,0,0-2.645,1.563,7.063,7.063,0,0,0-1.719,2.512,9.628,9.628,0,0,0,0,6.765,7.2,7.2,0,0,0,1.7,2.512,6.873,6.873,0,0,0,2.579,1.529,10.147,10.147,0,0,0,3.26.5,9.169,9.169,0,0,0,1.585-.133q.759-.134,1.373-.3a6.091,6.091,0,0,0,1.05-.38" transform="translate(-100.547 -136.075)" fill="#9f7264"/>
      <path id="Path_114906" data-name="Path 114906" d="M246.956,147.808q-.569-1.307-1.217-2.825t-1.3-3.059q-.648-1.542-1.273-3.049t-1.161-2.8h-.424q-1.742,4-3.461,7.859T234.6,151.7a7.57,7.57,0,0,1,1.653,0q.289-1.027.87-2.6t1.3-3.315c.461-.014.915-.026,1.362-.033s.9-.011,1.362-.011q.736,0,1.473.011t1.452.033q.29.737.625,1.551t.658,1.607q.324.793.592,1.519t.425,1.239a4.184,4.184,0,0,1,.592-.045h1.183a4.2,4.2,0,0,1,.592.045q-.29-.536-.748-1.562t-1.027-2.334m-4.455-3.014q-.625.011-1.251.011-.58,0-1.205-.023c-.416-.014-.819-.023-1.206-.023l2.434-5.671,2.478,5.671c-.417.016-.834.027-1.251.035" transform="translate(-110.347 -136.075)" fill="#9f7264"/>
      <path id="Path_114907" data-name="Path 114907" d="M268.223,143.529q.6-.692,1.507-1.619t1.9-1.887q.994-.959,1.976-1.875t1.764-1.585c-.179.03-.357.055-.536.077a4.26,4.26,0,0,1-.536.033,2.955,2.955,0,0,1-.446-.033c-.149-.023-.305-.048-.469-.077q-.781.893-1.629,1.841t-1.719,1.865q-.87.917-1.731,1.764t-1.641,1.518c-.149.135-.253.2-.312.2-.09,0-.135-.06-.135-.179v-1.228q0-1.474.057-2.891t.123-2.891c-.194.03-.38.055-.559.077a4.321,4.321,0,0,1-1.072,0c-.178-.023-.365-.048-.558-.077q.067,1.473.122,2.891t.057,2.891v3.841q0,1.472-.057,2.9T264.2,151.9q.513-.045,1.094-.045t1.094.045q-.067-1.384-.123-2.814t-.057-2.9v-1.943c0-.089.037-.133.111-.133s.149.058.269.178q.357.358,1.1,1.24t1.675,1.986q.926,1.106,1.9,2.289t1.775,2.1a4.331,4.331,0,0,1,.614-.045h1.283a5.067,5.067,0,0,1,.67.045q-1.9-2.121-3.74-4.231t-3.65-4.141" transform="translate(-122.315 -136.272)" fill="#9f7264"/>
      <path id="Path_114908" data-name="Path 114908" d="M297.057,150.628a9.772,9.772,0,0,1-1.261.168q-.726.056-1.54.089t-1.664.033h-1.563q-.023-.423-.033-1.25t-.011-2.1v-2.21c0-.238,0-.436.011-.592s.011-.3.011-.435c.267,0,.629,0,1.083.011l1.451.023q.77.012,1.54.055t1.351.112a3.4,3.4,0,0,1-.066-.67,3.536,3.536,0,0,1,.066-.693q-.492.046-1.038.079t-1.194.067q-.648.034-1.429.055t-1.763.023q0-.425-.011-1.25t-.011-1.7q0-.826.033-1.474t.056-1.361q1.094,0,1.876.033t1.44.078q.659.045,1.251.089c.394.03.829.06,1.306.09a3.367,3.367,0,0,1,0-1.34q-1,.045-1.987.077t-1.988.033q-1,0-2-.033t-2-.077q.066,1.429.122,2.857t.055,2.9v3.84q0,1.474-.055,2.891t-.122,2.847q1.026-.045,2.032-.045h4.052q.994,0,2,.045a2.071,2.071,0,0,1-.067-.581c0-.1,0-.219.011-.346a1.567,1.567,0,0,1,.055-.346" transform="translate(-132.328 -136.272)" fill="#9f7264"/>
      <path id="Path_114909" data-name="Path 114909" d="M318.941,149.658q-.581-.726-1.205-1.519t-1.206-1.517q-.58-.727-1.049-1.329t-.738-.937a7.483,7.483,0,0,0,1.44-.369,5.783,5.783,0,0,0,1.485-.781,4.487,4.487,0,0,0,1.172-1.273,3.873,3.873,0,0,0,.112-3.516,2.986,2.986,0,0,0-1-1.083,4.349,4.349,0,0,0-1.485-.592,8.6,8.6,0,0,0-1.786-.179q-.648,0-1.273.055t-1.273.056q-.648,0-1.273-.033c-.416-.023-.841-.048-1.273-.078q.067,1.473.123,2.891t.056,2.891v3.841q0,1.473-.056,2.9t-.123,2.814c.342-.03.708-.045,1.1-.045s.751.015,1.094.045q-.067-1.384-.123-2.814t-.055-2.9v-1.63h.848q.714.736,1.574,1.8t1.685,2.132q.826,1.072,1.507,2.009t1.016,1.407a4.572,4.572,0,0,1,.647-.045h1.318a5.058,5.058,0,0,1,.67.045q-.313-.313-.826-.915t-1.094-1.329m-5.85-5.928c-.3,0-.569-.007-.815-.023a4.5,4.5,0,0,1-.68-.089v-1.273q0-1.206.045-2.411t.089-2.434c.237-.029.528-.056.871-.078s.773-.034,1.295-.034a5.937,5.937,0,0,1,1.183.123,3.191,3.191,0,0,1,1.117.458,2.581,2.581,0,0,1,.837.9,2.876,2.876,0,0,1,.323,1.44,3.084,3.084,0,0,1-.412,1.663,3.255,3.255,0,0,1-1.038,1.049,4.174,4.174,0,0,1-1.373.547,7.005,7.005,0,0,1-1.441.157" transform="translate(-140.659 -136.272)" fill="#9f7264"/>
      <path id="Path_114910" data-name="Path 114910" d="M342.21,136.673a4.748,4.748,0,0,1-.871-.111q-.446.961-.96,1.976t-1.072,2.02q-.559,1.005-1.117,1.965t-1.071,1.764q-1.162-2.03-2.2-3.907t-2.042-3.818c-.208.03-.413.055-.614.078a5.673,5.673,0,0,1-1.229,0c-.2-.023-.405-.048-.614-.078q.223.357.648,1.061t.95,1.585q.523.881,1.1,1.852t1.105,1.854q.524.881.96,1.607t.658,1.1q0,1.81-.022,3.461t-.155,2.814q.513-.045,1.093-.045t1.094.045q-.044-.469-.077-1.239t-.056-1.674q-.023-.905-.034-1.842c-.008-.626-.011-1.213-.011-1.765q.357-.69.848-1.551t1.139-1.931q.646-1.072,1.5-2.39t1.92-2.947a4.748,4.748,0,0,1-.871.111" transform="translate(-149.081 -136.272)" fill="#9f7264"/>
    </g>
    <g id="Group_1" data-name="Group 1" transform="translate(34.896 330.57)">
      <path id="Path_114911" data-name="Path 114911" d="M44.635,178.09,41.392,174.7v4.75h.671v-3.114l3.243,3.384V175h-.671Z" transform="translate(-41.392 -174.697)" fill="#9f7264"/>
      <path id="Path_114912" data-name="Path 114912" d="M58.312,177.884a1.451,1.451,0,0,1-.187.839,1,1,0,0,1-1.575,0,1.476,1.476,0,0,1-.187-.839v-2.678h-.671v2.863a1.611,1.611,0,0,0,1.644,1.665,1.626,1.626,0,0,0,1.21-.506,1.6,1.6,0,0,0,.438-1.158v-2.863h-.671Z" transform="translate(-47.172 -174.903)" fill="#9f7264"/>
      <path id="Path_114913" data-name="Path 114913" d="M68.164,175.836h1.022v3.816h.671v-3.816h1.021V175.2H68.164Z" transform="translate(-52.214 -174.902)" fill="#9f7264"/>
      <path id="Path_114914" data-name="Path 114914" d="M81.884,177.322a1.263,1.263,0,0,0,.271-.811,1.221,1.221,0,0,0-.432-.975,1.969,1.969,0,0,0-1.274-.331h-.786v4.447h.671v-1.82h.121l1.27,1.82h.821l-1.377-1.9a1.2,1.2,0,0,0,.714-.434m-1.55-.074v-1.411h.24q.927,0,.927.682,0,.729-.953.729Z" transform="translate(-56.862 -174.902)" fill="#9f7264"/>
      <rect id="Rectangle_134" data-name="Rectangle 134" width="0.671" height="4.447" transform="translate(29.893 0.303)" fill="#9f7264"/>
      <path id="Path_114915" data-name="Path 114915" d="M99.644,175.836h1.022v3.816h.671v-3.816h1.021V175.2H99.644Z" transform="translate(-64.938 -174.902)" fill="#9f7264"/>
      <rect id="Rectangle_135" data-name="Rectangle 135" width="0.671" height="4.447" transform="translate(41.557 0.303)" fill="#9f7264"/>
      <path id="Path_114916" data-name="Path 114916" d="M121.968,175.065a2.269,2.269,0,0,0-1.648.674,2.3,2.3,0,0,0,.067,3.341A2.35,2.35,0,0,0,123.6,179a2.184,2.184,0,0,0,.686-1.628,2.325,2.325,0,0,0-2.313-2.312m1.155,3.5a1.669,1.669,0,0,1-2.335-2.385,1.658,1.658,0,0,1,2.341,0,1.726,1.726,0,0,1-.005,2.385" transform="translate(-73.018 -174.845)" fill="#9f7264"/>
      <path id="Path_114917" data-name="Path 114917" d="M137.413,177.884a1.456,1.456,0,0,1-.187.839,1,1,0,0,1-1.576,0,1.481,1.481,0,0,1-.186-.839v-2.678h-.671v2.863a1.611,1.611,0,0,0,1.644,1.665,1.626,1.626,0,0,0,1.21-.506,1.605,1.605,0,0,0,.438-1.158v-2.863h-.671Z" transform="translate(-79.146 -174.903)" fill="#9f7264"/>
      <path id="Path_114918" data-name="Path 114918" d="M149.484,176.949l-.444-.182q-.483-.2-.484-.524a.49.49,0,0,1,.184-.391.773.773,0,0,1,.836-.067.947.947,0,0,1,.291.346l.544-.323a1.333,1.333,0,0,0-1.2-.749,1.388,1.388,0,0,0-.954.34,1.072,1.072,0,0,0-.382.838,1.235,1.235,0,0,0,.913,1.129l.429.179a1.742,1.742,0,0,1,.288.151.868.868,0,0,1,.2.17.619.619,0,0,1,.113.2.751.751,0,0,1,.035.237.726.726,0,0,1-.207.534.767.767,0,0,1-1.126-.079,1.163,1.163,0,0,1-.161-.542l-.68.15a1.579,1.579,0,0,0,.464.966,1.365,1.365,0,0,0,.956.343,1.4,1.4,0,0,0,1.022-.4,1.359,1.359,0,0,0,.409-1.014,1.206,1.206,0,0,0-.251-.774,1.911,1.911,0,0,0-.792-.534" transform="translate(-84.354 -174.843)" fill="#9f7264"/>
      <path id="Path_114919" data-name="Path 114919" d="M170.75,175.337a3.386,3.386,0,0,0-1.06-.132h-.933v4.447h.922a3.464,3.464,0,0,0,1.045-.123,2.268,2.268,0,0,0,.783-3.751,1.982,1.982,0,0,0-.757-.44m.273,3.27a1.528,1.528,0,0,1-.542.319,2.529,2.529,0,0,1-.752.1h-.3v-3.186h.3a1.853,1.853,0,0,1,1.3.406,1.546,1.546,0,0,1,.49,1.187,1.522,1.522,0,0,1-.5,1.178" transform="translate(-92.875 -174.902)" fill="#9f7264"/>
      <path id="Path_114920" data-name="Path 114920" d="M181.887,179.652h2.454v-.63h-1.783v-1.486h1.731V176.9h-1.731v-1.068h1.783v-.631h-2.454Z" transform="translate(-98.183 -174.902)" fill="#9f7264"/>
      <path id="Path_114921" data-name="Path 114921" d="M194.861,176.949l-.443-.182c-.322-.132-.484-.306-.484-.524a.491.491,0,0,1,.185-.391.771.771,0,0,1,.835-.067.941.941,0,0,1,.291.346l.544-.323a1.333,1.333,0,0,0-1.2-.749,1.388,1.388,0,0,0-.954.34,1.072,1.072,0,0,0-.383.838,1.235,1.235,0,0,0,.913,1.129l.43.179a1.79,1.79,0,0,1,.288.151.864.864,0,0,1,.2.17.608.608,0,0,1,.113.2.795.795,0,0,1-.172.771.705.705,0,0,1-.521.21.7.7,0,0,1-.605-.288,1.155,1.155,0,0,1-.161-.542l-.68.15a1.579,1.579,0,0,0,.464.966,1.365,1.365,0,0,0,.956.343,1.4,1.4,0,0,0,1.022-.4,1.361,1.361,0,0,0,.409-1.014,1.206,1.206,0,0,0-.251-.774,1.9,1.9,0,0,0-.792-.534" transform="translate(-102.696 -174.843)" fill="#9f7264"/>
      <path id="Path_114922" data-name="Path 114922" d="M206.575,176.949l-.443-.182q-.484-.2-.484-.524a.489.489,0,0,1,.185-.391.77.77,0,0,1,.835-.067.942.942,0,0,1,.292.346l.544-.323a1.333,1.333,0,0,0-1.2-.749,1.387,1.387,0,0,0-.954.34,1.072,1.072,0,0,0-.382.838,1.235,1.235,0,0,0,.913,1.129l.429.179a1.742,1.742,0,0,1,.288.151.868.868,0,0,1,.2.17.608.608,0,0,1,.113.2.8.8,0,0,1-.172.771.708.708,0,0,1-.521.21.7.7,0,0,1-.6-.288,1.155,1.155,0,0,1-.162-.542l-.679.15a1.576,1.576,0,0,0,.464.966,1.365,1.365,0,0,0,.956.343,1.4,1.4,0,0,0,1.022-.4,1.359,1.359,0,0,0,.409-1.014,1.206,1.206,0,0,0-.251-.774,1.907,1.907,0,0,0-.792-.534" transform="translate(-107.431 -174.843)" fill="#9f7264"/>
      <path id="Path_114923" data-name="Path 114923" d="M216.851,179.652h2.454v-.63h-1.783v-1.486h1.731V176.9h-1.731v-1.068h1.783v-.631h-2.454Z" transform="translate(-112.316 -174.902)" fill="#9f7264"/>
      <path id="Path_114924" data-name="Path 114924" d="M230.611,177.322a1.263,1.263,0,0,0,.271-.811,1.221,1.221,0,0,0-.433-.975,1.966,1.966,0,0,0-1.273-.331h-.786v4.447h.671v-1.82h.121l1.271,1.82h.82l-1.377-1.9a1.2,1.2,0,0,0,.714-.434m-1.55-.074v-1.411h.239q.927,0,.928.682,0,.729-.954.729Z" transform="translate(-116.98 -174.902)" fill="#9f7264"/>
      <path id="Path_114925" data-name="Path 114925" d="M239.421,175.836h1.023v3.816h.671v-3.816h1.02V175.2h-2.714Z" transform="translate(-121.439 -174.902)" fill="#9f7264"/>
      <path id="Path_114926" data-name="Path 114926" d="M252.349,176.949l-.443-.182c-.322-.132-.484-.306-.484-.524a.491.491,0,0,1,.185-.391.772.772,0,0,1,.835-.067.941.941,0,0,1,.291.346l.544-.323a1.333,1.333,0,0,0-1.2-.749,1.388,1.388,0,0,0-.954.34,1.072,1.072,0,0,0-.382.838,1.235,1.235,0,0,0,.913,1.129l.43.179a1.789,1.789,0,0,1,.288.151.863.863,0,0,1,.2.17.607.607,0,0,1,.113.2.795.795,0,0,1-.172.771.705.705,0,0,1-.521.21.7.7,0,0,1-.605-.288,1.156,1.156,0,0,1-.161-.542l-.68.15a1.579,1.579,0,0,0,.464.966,1.365,1.365,0,0,0,.956.343,1.4,1.4,0,0,0,1.022-.4,1.361,1.361,0,0,0,.409-1.014,1.206,1.206,0,0,0-.251-.774,1.9,1.9,0,0,0-.792-.534" transform="translate(-125.933 -174.843)" fill="#9f7264"/>
      <path id="Path_114927" data-name="Path 114927" d="M271.418,175.205v.631h1.826l-2.183,3.816H274.3v-.63h-2.134l2.183-3.817Z" transform="translate(-134.228 -174.902)" fill="#9f7264"/>
      <path id="Path_114928" data-name="Path 114928" d="M286.371,177.884a1.456,1.456,0,0,1-.186.839,1,1,0,0,1-1.576,0,1.481,1.481,0,0,1-.186-.839v-2.678h-.671v2.863a1.611,1.611,0,0,0,1.644,1.665,1.626,1.626,0,0,0,1.21-.506,1.6,1.6,0,0,0,.438-1.158v-2.863h-.671Z" transform="translate(-139.358 -174.903)" fill="#9f7264"/>
      <path id="Path_114929" data-name="Path 114929" d="M299.226,177.322a1.266,1.266,0,0,0,.27-.811,1.222,1.222,0,0,0-.433-.975,1.966,1.966,0,0,0-1.273-.331H297v4.447h.671v-1.82h.121l1.271,1.82h.82l-1.377-1.9a1.207,1.207,0,0,0,.715-.434m-1.55-.074v-1.411h.24q.927,0,.927.682,0,.729-.953.729Z" transform="translate(-144.715 -174.902)" fill="#9f7264"/>
      <rect id="Rectangle_136" data-name="Rectangle 136" width="0.671" height="4.447" transform="translate(159.381 0.303)" fill="#9f7264"/>
      <path id="Path_114930" data-name="Path 114930" d="M317.957,175.875a2.284,2.284,0,0,0-.561,1.515,2.208,2.208,0,0,0,.671,1.619,2.232,2.232,0,0,0,1.626.665,2.42,2.42,0,0,0,1.209-.326v-.81a3.351,3.351,0,0,1-.312.237,1.69,1.69,0,0,1-.287.155,1.412,1.412,0,0,1-.6.115,1.564,1.564,0,0,1-1.159-.481,1.62,1.62,0,0,1-.472-1.18,1.662,1.662,0,0,1,.472-1.2,1.536,1.536,0,0,1,1.156-.493,1.86,1.86,0,0,1,1.2.487v-.795a2.264,2.264,0,0,0-1.158-.326,2.236,2.236,0,0,0-1.789.816" transform="translate(-152.958 -174.843)" fill="#9f7264"/>
      <path id="Path_114931" data-name="Path 114931" d="M333.442,176.945h-1.918v-1.74h-.671v4.447h.671v-2.077h1.918v2.077h.671v-4.447h-.671Z" transform="translate(-158.397 -174.902)" fill="#9f7264"/>
    </g>
  </g>
</svg>
