<svg xmlns="http://www.w3.org/2000/svg" width="181.362" height="72.541" viewBox="0 0 181.362 72.541">
  <g id="_2" data-name="2" transform="translate(-26.047 -50.339)">
    <path id="Path_114897" data-name="Path 114897" d="M191.071,47.11a.223.223,0,0,0-.129-.2.23.23,0,0,0-.066-.015s0,0-.008,0a11.2,11.2,0,0,0-7.784,2.269,10.977,10.977,0,0,0-3.468,4.719,5.516,5.516,0,0,0-.886-2.312.224.224,0,0,0-.359.27,5.321,5.321,0,0,1,.834,2.4,5.405,5.405,0,0,0-4.593-2.368,5.033,5.033,0,0,0-3.011,1.285.224.224,0,0,0,.086.384c.734.21,1.443.428,2.166.665.411.135.777.261,1.115.377a10.093,10.093,0,0,0,3.468.786c.079,0,.158,0,.239,0,.179-.006.36-.029.54-.049,0,.022,0,.045-.006.067a8.576,8.576,0,0,0-8.106,8.269l-.16-.055c-.456-.16-.887-.311-1.225-.028a.982.982,0,0,0-.325.752v.036l2.417,8.474a3.04,3.04,0,0,0,.5.943c1.084,1.377,3.149,1.542,5.147,1.7.272.022.813.056,1.538.056.53,0,1.157-.019,1.849-.072,2.314-.18,4.312-.336,5.424-1.682a3.176,3.176,0,0,0,.576-1.058l3.071-8.243.013-.057a.889.889,0,0,0-.259-.814c-.328-.275-.761-.141-1.264.014l-.176.053a8.584,8.584,0,0,0-7.431-8.229c.187.01.378.016.577.016a10.593,10.593,0,0,0,3.767-.681,8.995,8.995,0,0,0,5.245-4.477,7.746,7.746,0,0,0,.682-3.176v-.006l0,0m-12.41,7.8a9.245,9.245,0,0,1-3.546-.757c-.339-.116-.708-.242-1.121-.378-.593-.194-1.175-.375-1.768-.55a4.473,4.473,0,0,1,2.413-.91,5.057,5.057,0,0,1,4.461,2.567c-.146.015-.294.024-.44.029m4.7-5.4a10.7,10.7,0,0,1,7.127-2.2c-.674,1.2-3.658,5.782-10.7,7.443a10.582,10.582,0,0,1,3.575-5.245m-3.7,5.809c.126.019.256.037.392.053-.13-.006-.259-.019-.39-.019h0l0-.033m-7,18.17a2.584,2.584,0,0,1-.426-.8L169.846,64.3a.529.529,0,0,1,.162-.392c.134-.113.386-.033.788.108a6.124,6.124,0,0,0,.729.22l.023.016V64.24a2.838,2.838,0,0,0,.642.055l1.829,10.141a3.107,3.107,0,0,1-1.353-.944m1.838,1.1-1.866-10.349a2.183,2.183,0,0,0,.951-.477,1.331,1.331,0,0,1,.858-.372,1.6,1.6,0,0,1,1.084.4,2.471,2.471,0,0,0,1.173.5l.535,10.7a14.511,14.511,0,0,1-2.736-.408m6.274.416a22.22,22.22,0,0,1-3.086.028l-.537-10.723a2.347,2.347,0,0,0,1.092-.4,1.781,1.781,0,0,1,1.145-.356,1.554,1.554,0,0,1,.918.342,2.168,2.168,0,0,0,1.064.425Zm1.045-10.685a2.732,2.732,0,0,0,1.186-.429,2.3,2.3,0,0,1,1.353-.422,1.85,1.85,0,0,1,1.1.376,2.627,2.627,0,0,0,1.155.448l-2.5,10.255a15.414,15.414,0,0,1-2.882.421Zm6.717-.281c.392-.121.7-.217.841-.1a.487.487,0,0,1,.1.4l-3.063,8.225a2.727,2.727,0,0,1-.5.918,3.142,3.142,0,0,1-1.312.9l2.457-10.065a5.383,5.383,0,0,0,1.47-.278m-.752-.257a3.359,3.359,0,0,1-.887.094,2.087,2.087,0,0,1-1.2-.409,2.276,2.276,0,0,0-1.329-.446h-.056a2.83,2.83,0,0,0-1.53.483,2.04,2.04,0,0,1-1.314.377,1.7,1.7,0,0,1-.91-.36,1.994,1.994,0,0,0-1.149-.419,2.28,2.28,0,0,0-1.4.421,1.778,1.778,0,0,1-1.09.355,1.909,1.909,0,0,1-1.136-.45,2.053,2.053,0,0,0-1.363-.483,1.78,1.78,0,0,0-1.113.468,1.657,1.657,0,0,1-.956.43,2.335,2.335,0,0,1-.808-.067,8.121,8.121,0,1,1,16.241.008m2.192-13.675a8.583,8.583,0,0,1-5,4.243,10.249,10.249,0,0,1-4.275.629,16.976,16.976,0,0,0,9.85-6.924,7.149,7.149,0,0,1-.58,2.052" transform="translate(-63.505 4)" fill="#603c31" stroke="#603c31" stroke-width="1"/>
    <path id="Path_114898" data-name="Path 114898" d="M32.35,137.647q.543,0,1.138.011t1.19.042q.595.032,1.147.073c.368.027.7.062.991.1a2.467,2.467,0,0,1-.1-.647,2.9,2.9,0,0,1,.1-.668q-1.377.043-2.692.073t-2.692.031q-1.377,0-2.693-.031t-2.692-.073a2.87,2.87,0,0,1,.1.647,2.524,2.524,0,0,1-.1.668q.438-.063.991-.1t1.148-.073q.595-.031,1.19-.042t1.137-.011q.062,2.15.062,4.32v3.591q0,1.377-.052,2.712T30.41,150.9q.48-.042,1.023-.042t1.023.042q-.063-1.294-.115-2.631t-.052-2.712v-3.591q0-2.171.062-4.32" transform="translate(0 -39.615)" fill="#603c31"/>
    <path id="Path_114899" data-name="Path 114899" d="M63.75,139.265q.052-1.326.115-2.7c-.181.028-.355.052-.521.073a4.04,4.04,0,0,1-1,0c-.167-.021-.342-.045-.522-.073q.062,1.377.115,2.7t.052,2.7v.73l-2.182.042q-1.054.023-2.181.021t-2.181-.021l-2.181-.042v-.73q0-1.377.052-2.7t.115-2.7c-.181.028-.355.052-.522.073a4.043,4.043,0,0,1-1,0c-.167-.021-.341-.045-.521-.073q.063,1.377.115,2.7t.052,2.7v3.591q0,1.377-.052,2.712t-.115,2.631q.48-.042,1.023-.042t1.023.042q-.063-1.294-.115-2.631t-.052-2.712v-1.879q1.127-.021,2.181-.031t2.181-.01q1.127,0,2.181.01t2.182.031v1.879q0,1.377-.052,2.712T61.82,150.9q.48-.042,1.023-.042t1.023.042q-.063-1.294-.115-2.631t-.052-2.712v-3.591q0-1.377.052-2.7" transform="translate(-11.226 -39.614)" fill="#603c31"/>
    <path id="Path_114900" data-name="Path 114900" d="M89.972,149.709a9.139,9.139,0,0,1-1.18.157q-.677.053-1.44.084t-1.555.031H84.336q-.021-.4-.031-1.169t-.011-1.962v-2.065c0-.223,0-.407.011-.555s.01-.282.01-.407q.376,0,1.013.01l1.358.021q.72.011,1.44.052t1.262.1a3.18,3.18,0,0,1-.063-.626,3.3,3.3,0,0,1,.063-.648q-.459.043-.971.073t-1.116.063q-.607.032-1.336.052t-1.649.021q0-.4-.01-1.169T84.3,140.19q0-.772.031-1.378t.052-1.273q1.023,0,1.753.031t1.346.073q.615.042,1.169.084c.368.028.775.056,1.221.084a3.148,3.148,0,0,1,0-1.253q-.94.042-1.858.072t-1.857.031q-.939,0-1.868-.031t-1.868-.072q.063,1.336.115,2.671t.052,2.714v3.591q0,1.377-.052,2.7t-.115,2.662q.96-.042,1.9-.042H88.1q.928,0,1.868.042a1.936,1.936,0,0,1-.062-.543c0-.1,0-.2.01-.324a1.5,1.5,0,0,1,.052-.324" transform="translate(-24.976 -39.612)" fill="#603c31"/>
    <path id="Path_114901" data-name="Path 114901" d="M120.951,136.63q-.96.031-1.9.031t-1.868-.031q-.929-.032-1.868-.073.063,1.377.115,2.7t.052,2.7v3.591q0,1.377-.052,2.713t-.115,2.63q.48-.042,1.023-.042t1.023.042q-.063-1.294-.115-2.63t-.052-2.713v-1.775h1.4q.73,0,1.44.021t1.367.052q.658.031,1.179.094a2.4,2.4,0,0,1,0-1.253q-1.314.125-2.661.168t-2.724.042q0-.669-.011-1.284t-.011-1.346q0-.668.011-1.335c.007-.446.017-.911.031-1.4q.5,0,1.263.019t1.587.052q.825.032,1.618.084t1.358.115a3.147,3.147,0,0,1,0-1.253q-1.127.043-2.088.073" transform="translate(-39.549 -39.609)" fill="#603c31"/>
    <path id="Path_114902" data-name="Path 114902" d="M136.04,148.272q-.053,1.338-.115,2.631.48-.042,1.023-.042t1.023.042q-.063-1.294-.115-2.631t-.052-2.712v-3.592q0-1.377.052-2.7t.115-2.7c-.181.028-.355.051-.522.072a4.043,4.043,0,0,1-1,0c-.167-.021-.341-.045-.521-.072q.063,1.377.115,2.7t.052,2.7v3.591q0,1.377-.052,2.712" transform="translate(-48.679 -39.615)" fill="#603c31"/>
    <path id="Path_114903" data-name="Path 114903" d="M160.428,150.957v-.688q0-.5-.011-1.179t-.021-1.461c-.007-.521-.014-1.04-.021-1.555s-.01-1.009-.01-1.483v-1.252q0-.6.041-1.606t.094-2.046q.052-1.043.1-1.962t.094-1.377a2.9,2.9,0,0,1-.668.1,3,3,0,0,1-.71-.1q.1,1.836.135,3.913t.032,4.269v2.839q-.96-.96-2.244-2.328t-2.714-2.9q-1.43-1.534-2.88-3.11t-2.724-2.954h-.334q.042.71.052,2.15t.011,3.443q0,.688-.021,1.566t-.052,1.795q-.031.919-.083,1.837t-.094,1.7q-.042.783-.094,1.346t-.094.773a6.616,6.616,0,0,1,.772-.042,5.911,5.911,0,0,1,.731.042q-.021-.167-.042-.637c-.014-.313-.028-.679-.042-1.1s-.028-.87-.042-1.358-.024-.967-.031-1.44-.014-.925-.021-1.358-.01-.793-.01-1.086q0-1.69.021-2.672t.042-1.565q2.714,2.88,5.427,5.791t5.114,5.688Z" transform="translate(-54.125 -39.4)" fill="#603c31"/>
    <path id="Path_114904" data-name="Path 114904" d="M186.81,149.709a9.139,9.139,0,0,1-1.179.157q-.678.053-1.44.084t-1.555.031h-1.461q-.022-.4-.031-1.169t-.011-1.962v-2.065q0-.334.011-.555t.01-.407q.376,0,1.013.01l1.358.021q.72.011,1.44.052t1.262.1a3.177,3.177,0,0,1-.062-.626,3.3,3.3,0,0,1,.062-.648q-.459.043-.971.073t-1.116.063q-.607.032-1.336.052t-1.649.021q0-.4-.01-1.169t-.011-1.587q0-.772.031-1.378t.052-1.273q1.023,0,1.753.031t1.346.073q.615.042,1.169.084c.369.028.776.056,1.221.084a3.148,3.148,0,0,1,0-1.253q-.94.042-1.857.072t-1.857.031q-.94,0-1.868-.031t-1.868-.072q.062,1.336.115,2.671t.052,2.714v3.591q0,1.377-.052,2.7t-.115,2.662q.959-.042,1.9-.042h3.787q.929,0,1.868.042a1.956,1.956,0,0,1-.062-.543c0-.1,0-.2.01-.324a1.529,1.529,0,0,1,.052-.324" transform="translate(-67.879 -39.612)" fill="#603c31"/>
    <path id="Path_114905" data-name="Path 114905" d="M221.722,150.193a2.7,2.7,0,0,0,.595-.365l.188-1.232-.084-.084q-.292.231-.72.532a6.784,6.784,0,0,1-.96.564,7.341,7.341,0,0,1-1.169.449,4.909,4.909,0,0,1-1.388.188,6.45,6.45,0,0,1-2.285-.4,4.874,4.874,0,0,1-1.837-1.222,5.7,5.7,0,0,1-1.221-2.088,10.453,10.453,0,0,1,0-5.99,5.711,5.711,0,0,1,1.221-2.088,4.879,4.879,0,0,1,1.837-1.221,6.437,6.437,0,0,1,2.285-.4,4.552,4.552,0,0,1,1.378.2,5.607,5.607,0,0,1,1.128.49,6.458,6.458,0,0,1,.877.605,4.572,4.572,0,0,1,.584.564l.125-.042q.063-.333.167-.834a2.759,2.759,0,0,1,.271-.794,11.86,11.86,0,0,0-2.014-.679,10.474,10.474,0,0,0-2.516-.281,9.613,9.613,0,0,0-3.173.5,6.933,6.933,0,0,0-2.473,1.461,6.6,6.6,0,0,0-1.607,2.348,9,9,0,0,0,0,6.324,6.73,6.73,0,0,0,1.587,2.349,6.425,6.425,0,0,0,2.411,1.429,9.485,9.485,0,0,0,3.047.47,8.572,8.572,0,0,0,1.482-.125q.709-.125,1.283-.282a5.7,5.7,0,0,0,.981-.355" transform="translate(-81.657 -39.397)" fill="#603c31"/>
    <path id="Path_114906" data-name="Path 114906" d="M246.153,147.045q-.532-1.221-1.137-2.641t-1.211-2.859q-.606-1.441-1.19-2.849t-1.085-2.62h-.4q-1.628,3.737-3.235,7.347t-3.3,7.264a7.077,7.077,0,0,1,1.546,0q.27-.96.814-2.432t1.211-3.1q.646-.02,1.273-.031c.418-.007.841-.01,1.273-.01q.688,0,1.377.01t1.358.031q.271.688.584,1.45t.615,1.5q.3.741.553,1.42t.4,1.158a3.912,3.912,0,0,1,.553-.042h1.105a3.923,3.923,0,0,1,.553.042q-.272-.5-.7-1.46t-.96-2.182m-4.164-2.818q-.584.01-1.169.01-.542,0-1.127-.021c-.389-.013-.765-.021-1.128-.021l2.276-5.3,2.317,5.3c-.39.015-.78.025-1.169.032" transform="translate(-92.396 -39.4)" fill="#603c31"/>
    <path id="Path_114907" data-name="Path 114907" d="M267.961,143.075q.564-.647,1.409-1.513t1.775-1.764q.929-.9,1.847-1.753t1.649-1.482c-.167.028-.334.051-.5.072a3.987,3.987,0,0,1-.5.031,2.764,2.764,0,0,1-.417-.031c-.139-.021-.285-.045-.44-.072q-.73.835-1.523,1.721t-1.606,1.743q-.814.857-1.618,1.649T266.5,143.1c-.139.126-.237.188-.292.188-.084,0-.126-.056-.126-.167v-1.147q0-1.377.053-2.7t.115-2.7c-.181.028-.355.051-.522.072a4.038,4.038,0,0,1-1,0c-.167-.021-.341-.045-.521-.072q.063,1.377.115,2.7t.053,2.7v3.59q0,1.377-.053,2.712T264.2,150.9q.48-.042,1.023-.042t1.023.042q-.063-1.294-.115-2.631t-.053-2.712v-1.817q0-.124.1-.124c.056,0,.139.055.251.166q.333.335,1.033,1.159t1.566,1.857q.865,1.034,1.773,2.14t1.66,1.962a4.043,4.043,0,0,1,.574-.042h1.2a4.736,4.736,0,0,1,.626.042q-1.774-1.982-3.5-3.955t-3.412-3.872" transform="translate(-105.51 -39.616)" fill="#603c31"/>
    <path id="Path_114908" data-name="Path 114908" d="M296.533,149.709a9.139,9.139,0,0,1-1.179.157q-.678.053-1.44.084t-1.556.031H290.9q-.022-.4-.031-1.169t-.01-1.962v-2.065c0-.223,0-.407.01-.555s.011-.282.011-.407c.249,0,.588,0,1.012.01l1.358.021c.481.007.96.024,1.44.052s.9.063,1.262.1a3.176,3.176,0,0,1-.062-.626,3.307,3.307,0,0,1,.062-.648q-.459.043-.97.073t-1.116.063q-.606.032-1.336.052t-1.649.021q0-.4-.01-1.169t-.011-1.587q0-.772.031-1.378t.052-1.273q1.023,0,1.753.031t1.346.073q.616.042,1.169.084c.368.028.775.056,1.221.084a3.148,3.148,0,0,1,0-1.253q-.939.042-1.858.072t-1.858.031q-.939,0-1.868-.031t-1.867-.072q.062,1.336.115,2.671t.052,2.714v3.591q0,1.377-.052,2.7t-.115,2.662q.959-.042,1.9-.042h3.788q.929,0,1.868.042a1.937,1.937,0,0,1-.062-.543c0-.1,0-.2.011-.324a1.459,1.459,0,0,1,.052-.324" transform="translate(-116.487 -39.612)" fill="#603c31"/>
    <path id="Path_114909" data-name="Path 114909" d="M318.329,148.805q-.543-.678-1.127-1.42t-1.128-1.419q-.542-.679-.98-1.243t-.69-.876a7,7,0,0,0,1.346-.344,5.407,5.407,0,0,0,1.389-.73,4.2,4.2,0,0,0,1.1-1.19,3.621,3.621,0,0,0,.1-3.287,2.792,2.792,0,0,0-.939-1.012,4.066,4.066,0,0,0-1.389-.553,8.037,8.037,0,0,0-1.669-.167q-.606,0-1.19.051t-1.19.052q-.606,0-1.19-.031c-.389-.022-.786-.045-1.19-.073q.063,1.377.115,2.7t.052,2.7v3.59q0,1.377-.052,2.712t-.115,2.631c.32-.028.662-.042,1.024-.042s.7.014,1.023.042q-.063-1.294-.115-2.631t-.052-2.712v-1.524h.793q.668.688,1.472,1.68t1.576,1.993q.772,1,1.409,1.878t.95,1.316a4.278,4.278,0,0,1,.6-.042H319.5a4.726,4.726,0,0,1,.626.042q-.292-.292-.772-.855T318.33,148.8m-5.469-5.542q-.418,0-.762-.021a4.2,4.2,0,0,1-.636-.083v-1.19q0-1.127.042-2.254t.084-2.275c.222-.027.494-.052.814-.073s.723-.032,1.21-.032a5.549,5.549,0,0,1,1.106.115,2.983,2.983,0,0,1,1.044.428,2.413,2.413,0,0,1,.783.846,2.688,2.688,0,0,1,.3,1.346,2.883,2.883,0,0,1-.385,1.555,3.042,3.042,0,0,1-.971.981,3.9,3.9,0,0,1-1.284.511,6.548,6.548,0,0,1-1.347.146" transform="translate(-125.614 -39.616)" fill="#603c31"/>
    <path id="Path_114910" data-name="Path 114910" d="M341.443,136.666a4.439,4.439,0,0,1-.814-.1q-.417.9-.9,1.848t-1,1.889q-.522.94-1.044,1.837t-1,1.649q-1.086-1.9-2.056-3.652t-1.909-3.569c-.2.029-.387.052-.574.073a5.306,5.306,0,0,1-1.149,0c-.188-.021-.379-.045-.574-.073q.208.334.605.992t.888,1.482q.489.824,1.033,1.732t1.033,1.733q.49.824.9,1.5t.616,1.033q0,1.692-.021,3.235t-.145,2.631q.48-.042,1.021-.042t1.023.042q-.041-.439-.072-1.159t-.052-1.565q-.022-.846-.032-1.722c-.008-.585-.01-1.134-.01-1.65q.334-.645.793-1.45t1.065-1.805q.6-1,1.4-2.234t1.8-2.755a4.44,4.44,0,0,1-.814.1" transform="translate(-134.847 -39.615)" fill="#603c31"/>
    <path id="Path_114911" data-name="Path 114911" d="M44.424,177.872,41.392,174.7v4.44h.627V176.23l3.032,3.163v-4.409h-.628Z" transform="translate(-6.799 -56.513)" fill="#603c31"/>
    <path id="Path_114912" data-name="Path 114912" d="M58.136,177.71a1.358,1.358,0,0,1-.175.784.937.937,0,0,1-1.472,0,1.38,1.38,0,0,1-.175-.784v-2.5h-.627v2.677a1.539,1.539,0,1,0,3.077,0v-2.677h-.628Z" transform="translate(-13.129 -56.736)" fill="#603c31"/>
    <path id="Path_114913" data-name="Path 114913" d="M68.164,175.791h.956v3.567h.627v-3.567H70.7V175.2H68.164Z" transform="translate(-18.659 -56.731)" fill="#603c31"/>
    <path id="Path_114914" data-name="Path 114914" d="M81.74,177.184a1.181,1.181,0,0,0,.253-.759,1.142,1.142,0,0,0-.4-.911,1.841,1.841,0,0,0-1.191-.309h-.735v4.157h.627v-1.7H80.4l1.187,1.7h.768l-1.287-1.772a1.124,1.124,0,0,0,.668-.406m-1.449-.07V175.8h.224q.866,0,.867.638,0,.682-.891.682Z" transform="translate(-23.754 -56.735)" fill="#603c31"/>
    <rect id="Rectangle_134" data-name="Rectangle 134" width="0.627" height="4.157" transform="translate(62.54 118.47)" fill="#603c31"/>
    <path id="Path_114915" data-name="Path 114915" d="M99.644,175.791h.956v3.567h.627v-3.567h.954V175.2H99.644Z" transform="translate(-32.606 -56.731)" fill="#603c31"/>
    <rect id="Rectangle_135" data-name="Rectangle 135" width="0.627" height="4.157" transform="translate(73.443 118.47)" fill="#603c31"/>
    <path id="Path_114916" data-name="Path 114916" d="M121.815,175.064a2.121,2.121,0,0,0-1.541.631,2.148,2.148,0,0,0,.062,3.124,2.2,2.2,0,0,0,3-.071,2.042,2.042,0,0,0,.641-1.522,2.174,2.174,0,0,0-2.162-2.161m1.08,3.271a1.56,1.56,0,1,1,0-2.23,1.614,1.614,0,0,1,0,2.23" transform="translate(-41.46 -56.672)" fill="#603c31"/>
    <path id="Path_114917" data-name="Path 114917" d="M137.238,177.71a1.361,1.361,0,0,1-.175.784.937.937,0,0,1-1.472,0,1.385,1.385,0,0,1-.174-.784v-2.5h-.627v2.677a1.539,1.539,0,1,0,3.077,0v-2.677h-.628Z" transform="translate(-48.174 -56.736)" fill="#603c31"/>
    <path id="Path_114918" data-name="Path 114918" d="M149.368,176.825l-.415-.17q-.452-.185-.452-.49a.459.459,0,0,1,.172-.366.722.722,0,0,1,.781-.062.885.885,0,0,1,.272.323l.508-.3a1.246,1.246,0,0,0-1.123-.7,1.3,1.3,0,0,0-.892.318,1,1,0,0,0-.358.784,1.154,1.154,0,0,0,.853,1.056l.4.168a1.63,1.63,0,0,1,.269.141.813.813,0,0,1,.185.159.579.579,0,0,1,.105.186.7.7,0,0,1,.033.222.679.679,0,0,1-.194.5.717.717,0,0,1-1.053-.073,1.088,1.088,0,0,1-.15-.506l-.635.14a1.476,1.476,0,0,0,.434.9,1.276,1.276,0,0,0,.894.32,1.311,1.311,0,0,0,.956-.377,1.27,1.27,0,0,0,.382-.948,1.128,1.128,0,0,0-.234-.724,1.786,1.786,0,0,0-.74-.5" transform="translate(-53.887 -56.669)" fill="#603c31"/>
    <path id="Path_114919" data-name="Path 114919" d="M170.62,175.321a3.166,3.166,0,0,0-.991-.124h-.872v4.157h.862a3.237,3.237,0,0,0,.977-.115,2.12,2.12,0,0,0,.732-3.508,1.853,1.853,0,0,0-.708-.412m.256,3.057a1.429,1.429,0,0,1-.506.3,2.366,2.366,0,0,1-.7.089h-.282v-2.977h.282a1.735,1.735,0,0,1,1.215.379,1.445,1.445,0,0,1,.458,1.109,1.422,1.422,0,0,1-.463,1.1" transform="translate(-63.225 -56.727)" fill="#603c31"/>
    <path id="Path_114920" data-name="Path 114920" d="M181.887,179.362h2.295v-.589h-1.667v-1.389h1.618v-.59h-1.618v-1h1.667v-.59h-2.295Z" transform="translate(-69.042 -56.735)" fill="#603c31"/>
    <path id="Path_114921" data-name="Path 114921" d="M194.746,176.825l-.414-.17c-.3-.123-.453-.287-.453-.49a.459.459,0,0,1,.172-.366.721.721,0,0,1,.781-.062.88.88,0,0,1,.272.323l.508-.3a1.246,1.246,0,0,0-1.122-.7,1.3,1.3,0,0,0-.892.318,1,1,0,0,0-.358.784,1.154,1.154,0,0,0,.853,1.056l.4.168a1.677,1.677,0,0,1,.269.141.809.809,0,0,1,.184.159.568.568,0,0,1,.105.186.743.743,0,0,1-.16.721.659.659,0,0,1-.487.2.652.652,0,0,1-.566-.27,1.08,1.08,0,0,1-.151-.506l-.635.14a1.476,1.476,0,0,0,.434.9,1.276,1.276,0,0,0,.894.32,1.312,1.312,0,0,0,.956-.377,1.272,1.272,0,0,0,.382-.948,1.128,1.128,0,0,0-.234-.724,1.778,1.778,0,0,0-.74-.5" transform="translate(-73.991 -56.669)" fill="#603c31"/>
    <path id="Path_114922" data-name="Path 114922" d="M206.457,176.825l-.414-.17q-.453-.185-.453-.49a.457.457,0,0,1,.172-.366.72.72,0,0,1,.78-.062.88.88,0,0,1,.273.323l.508-.3a1.247,1.247,0,0,0-1.123-.7,1.3,1.3,0,0,0-.892.318,1,1,0,0,0-.358.784,1.154,1.154,0,0,0,.853,1.056l.4.168a1.627,1.627,0,0,1,.269.141.812.812,0,0,1,.185.159.568.568,0,0,1,.105.186.747.747,0,0,1-.16.721.661.661,0,0,1-.487.2.651.651,0,0,1-.565-.27,1.079,1.079,0,0,1-.151-.506l-.635.14a1.473,1.473,0,0,0,.434.9,1.276,1.276,0,0,0,.894.32,1.31,1.31,0,0,0,.956-.377,1.271,1.271,0,0,0,.382-.948,1.128,1.128,0,0,0-.234-.724,1.783,1.783,0,0,0-.74-.5" transform="translate(-79.178 -56.669)" fill="#603c31"/>
    <path id="Path_114923" data-name="Path 114923" d="M216.851,179.362h2.295v-.589h-1.667v-1.389H219.1v-.59h-1.618v-1h1.667v-.59h-2.295Z" transform="translate(-84.532 -56.735)" fill="#603c31"/>
    <path id="Path_114924" data-name="Path 114924" d="M230.466,177.184a1.18,1.18,0,0,0,.253-.759,1.142,1.142,0,0,0-.4-.911,1.838,1.838,0,0,0-1.19-.309h-.734v4.157h.627v-1.7h.113l1.188,1.7h.767L229.8,177.59a1.125,1.125,0,0,0,.668-.406m-1.449-.07V175.8h.223q.866,0,.867.638,0,.682-.892.682Z" transform="translate(-89.644 -56.735)" fill="#603c31"/>
    <path id="Path_114925" data-name="Path 114925" d="M239.421,175.791h.956v3.567H241v-3.567h.954V175.2h-2.537Z" transform="translate(-94.531 -56.731)" fill="#603c31"/>
    <path id="Path_114926" data-name="Path 114926" d="M252.229,176.825l-.414-.17c-.3-.123-.453-.287-.453-.49a.459.459,0,0,1,.172-.366.721.721,0,0,1,.781-.062.88.88,0,0,1,.272.323l.508-.3a1.246,1.246,0,0,0-1.122-.7,1.3,1.3,0,0,0-.892.318,1,1,0,0,0-.358.784,1.154,1.154,0,0,0,.853,1.056l.4.168a1.674,1.674,0,0,1,.269.141.808.808,0,0,1,.184.159.569.569,0,0,1,.105.186.743.743,0,0,1-.16.721.659.659,0,0,1-.487.2.652.652,0,0,1-.566-.27,1.08,1.08,0,0,1-.151-.506l-.636.14a1.476,1.476,0,0,0,.434.9,1.276,1.276,0,0,0,.894.32,1.312,1.312,0,0,0,.956-.377,1.272,1.272,0,0,0,.382-.948,1.128,1.128,0,0,0-.234-.724,1.779,1.779,0,0,0-.74-.5" transform="translate(-99.454 -56.669)" fill="#603c31"/>
    <path id="Path_114927" data-name="Path 114927" d="M271.4,175.205v.59H273.1l-2.041,3.567h3.027v-.589h-2l2.041-3.568Z" transform="translate(-108.548 -56.735)" fill="#603c31"/>
    <path id="Path_114928" data-name="Path 114928" d="M286.2,177.71a1.362,1.362,0,0,1-.174.784.938.938,0,0,1-1.474,0,1.385,1.385,0,0,1-.174-.784v-2.5h-.627v2.677a1.539,1.539,0,1,0,3.077,0v-2.677H286.2Z" transform="translate(-114.166 -56.736)" fill="#603c31"/>
    <path id="Path_114929" data-name="Path 114929" d="M299.077,177.184a1.184,1.184,0,0,0,.253-.759,1.142,1.142,0,0,0-.4-.911,1.838,1.838,0,0,0-1.19-.309H297v4.157h.627v-1.7h.113l1.188,1.7h.768l-1.287-1.772a1.128,1.128,0,0,0,.669-.406m-1.449-.07V175.8h.224q.866,0,.867.638,0,.682-.891.682Z" transform="translate(-120.038 -56.735)" fill="#603c31"/>
    <rect id="Rectangle_136" data-name="Rectangle 136" width="0.628" height="4.157" transform="translate(183.592 118.47)" fill="#603c31"/>
    <path id="Path_114930" data-name="Path 114930" d="M317.92,175.818a2.135,2.135,0,0,0-.525,1.416,2.063,2.063,0,0,0,.628,1.514,2.086,2.086,0,0,0,1.521.622,2.263,2.263,0,0,0,1.131-.3v-.757a3.133,3.133,0,0,1-.292.221,1.581,1.581,0,0,1-.268.145,1.32,1.32,0,0,1-.563.107,1.462,1.462,0,0,1-1.083-.45,1.514,1.514,0,0,1-.441-1.1,1.554,1.554,0,0,1,.441-1.121,1.436,1.436,0,0,1,1.081-.461,1.738,1.738,0,0,1,1.125.456v-.743a2.116,2.116,0,0,0-1.082-.3,2.09,2.09,0,0,0-1.672.763" transform="translate(-129.075 -56.667)" fill="#603c31"/>
    <path id="Path_114931" data-name="Path 114931" d="M333.274,176.831H331.48v-1.626h-.627v4.157h.627v-1.942h1.793v1.942h.628v-4.157h-.628Z" transform="translate(-135.038 -56.735)" fill="#603c31"/>
  </g>
</svg>
